HIERARCHY
ROOT Hips
{
 OFFSET 0.000000 0.000000 0.000000
 CHANNELS 6 Xposition Yposition Zposition Yrotation Xrotation Zrotation
 JOINT Chest
 {
  OFFSET 0.000000 9.585900 0.002600
  CHANNELS 3 Yrotation Xrotation Zrotation
  JOINT Chest2
  {
   OFFSET 0.000000 9.601200 -0.005300
   CHANNELS 3 Yrotation Xrotation Zrotation
   JOINT Chest3
   {
    OFFSET 0.000000 9.561800 0.000000
    CHANNELS 3 Yrotation Xrotation Zrotation
    JOINT Chest4
    {
     OFFSET 0.000000 9.552100 0.000000
     CHANNELS 3 Yrotation Xrotation Zrotation
     JOINT Neck
     {
      OFFSET 0.000000 14.453000 0.000000
      CHANNELS 3 Yrotation Xrotation Zrotation
      JOINT Head
      {
       OFFSET 0.000000 8.936500 -0.011300
       CHANNELS 3 Yrotation Xrotation Zrotation
       End Site
       {
        OFFSET 0.000000 17.073600 -0.006000
       }
      }
     }
     JOINT RightCollar
     {
      OFFSET -2.921100 9.558500 0.000000
      CHANNELS 3 Yrotation Xrotation Zrotation
      JOINT RightShoulder
      {
       OFFSET -13.519700 0.000000 0.000000
       CHANNELS 3 Yrotation Xrotation Zrotation
       JOINT RightElbow
       {
        OFFSET 0.000000 -29.696600 0.000000
        CHANNELS 3 Yrotation Xrotation Zrotation
        JOINT RightWrist
        {
         OFFSET 0.000000 -24.004700 0.000000
         CHANNELS 3 Yrotation Xrotation Zrotation
         End Site
         {
          OFFSET 0.000000 -17.728500 0.000000
         }
        }
       }
      }
     }
     JOINT LeftCollar
     {
      OFFSET 2.921100 9.558500 0.000000
      CHANNELS 3 Yrotation Xrotation Zrotation
      JOINT LeftShoulder
      {
       OFFSET 13.519700 0.000000 0.000000
       CHANNELS 3 Yrotation Xrotation Zrotation
       JOINT LeftElbow
       {
        OFFSET 0.000000 -29.696600 0.000000
        CHANNELS 3 Yrotation Xrotation Zrotation
        JOINT LeftWrist
        {
         OFFSET 0.000000 -24.004700 0.000000
         CHANNELS 3 Yrotation Xrotation Zrotation
         End Site
         {
          OFFSET 0.000000 -17.728500 0.000000
         }
        }
       }
      }
     }
    }
   }
  }
 }
 JOINT RightHip
 {
  OFFSET -7.771700 -0.012900 -0.001300
  CHANNELS 3 Yrotation Xrotation Zrotation
  JOINT RightKnee
  {
   OFFSET 0.000000 -40.869800 0.001200
   CHANNELS 3 Yrotation Xrotation Zrotation
   JOINT RightAnkle
   {
    OFFSET 0.000000 -39.717900 0.002100
    CHANNELS 3 Yrotation Xrotation Zrotation
    JOINT RightToe
    {
     OFFSET 0.000000 -4.965400 11.033500
     CHANNELS 3 Yrotation Xrotation Zrotation
     End Site
     {
      OFFSET 0.000000 -1.423100 5.872300
     }
    }
   }
  }
 }
 JOINT LeftHip
 {
  OFFSET 7.771700 -0.012900 -0.001300
  CHANNELS 3 Yrotation Xrotation Zrotation
  JOINT LeftKnee
  {
   OFFSET 0.000000 -40.869800 0.001200
   CHANNELS 3 Yrotation Xrotation Zrotation
   JOINT LeftAnkle
   {
    OFFSET 0.000000 -39.717900 0.002100
    CHANNELS 3 Yrotation Xrotation Zrotation
    JOINT LeftToe
    {
     OFFSET 0.000000 -4.965400 11.033500
     CHANNELS 3 Yrotation Xrotation Zrotation
     End Site
     {
      OFFSET 0.000000 -1.423100 5.872300
     }
    }
   }
  }
 }
}
MOTION
Frames: 13
Frame Time: 0.008333
-80.897783 55.788140 -42.672849 -172.457255 -12.608431 -0.969462 -0.519090 14.675804 0.207237 -0.047021 1.312128 0.035100 -0.074293 2.221122 0.056668 -0.446118 13.148002 0.309972 -0.706266 12.553425 5.343659 -2.015939 -12.441081 5.933057 0.399295 -0.230233 0.815485 -1.426824 -5.550986 -5.922210 -72.486158 -47.260402 106.060471 -13.737515 18.980624 5.317397 -6.652763 -2.113940 2.050351 3.240213 -11.280682 6.063040 57.326010 -44.990453 -99.723011 12.984867 -8.696052 9.035480 -4.699452 -62.468129 8.498885 -32.701633 85.235878 -37.684899 -10.212701 -17.111925 13.165246 0.030698 -0.076119 0.009173 10.443860 -59.297266 -13.203177 90.224389 70.572588 91.638987 1.105176 -19.151825 -3.092715 0.023010 0.146789 0.004832
-80.893589 55.787413 -42.673621 -172.458474 -12.612319 -0.994752 -0.506179 14.683994 0.234750 -0.046899 1.313113 0.034984 -0.074597 2.223239 0.055054 -0.444199 13.151459 0.310434 -0.707795 12.546967 5.340968 -2.010356 -12.455954 5.912550 0.396035 -0.237128 0.812919 -1.431656 -5.551348 -5.920381 -72.486820 -47.258595 106.068495 -13.734156 18.983241 5.320813 -6.663481 -2.114209 2.063932 3.248666 -11.290146 6.054763 57.331348 -44.996521 -99.753625 12.980815 -8.699596 9.043780 -4.747063 -62.464398 8.554430 -32.749758 85.233235 -37.727506 -10.210767 -17.123683 13.166164 0.025792 -0.062049 0.004377 10.415157 -59.302432 -13.162463 90.239053 70.577078 91.659891 1.117846 -19.116054 -3.094840 0.012870 0.109130 0.004526
-80.897307 55.786441 -42.672353 -172.453631 -12.609029 -0.973987 -0.509069 14.691563 0.207901 -0.037910 1.325992 0.029060 -0.086101 2.207185 0.064216 -0.435399 13.167230 0.305462 -0.712930 12.527919 5.345985 -2.007800 -12.464857 5.899356 0.391659 -0.252797 0.813246 -1.440375 -5.558451 -5.910344 -72.471266 -47.258975 106.060036 -13.733947 18.983799 5.325663 -6.680529 -2.124071 2.089256 3.257964 -11.301596 6.045037 57.333239 -44.996418 -99.764903 12.977168 -8.698450 9.041824 -4.709265 -62.467545 8.506329 -32.698987 85.232111 -37.677872 -10.221853 -17.106410 13.167215 0.029060 -0.074714 0.007754 10.452724 -59.301491 -13.208088 90.239992 70.581039 91.663061 1.109713 -19.153988 -3.096697 0.024621 0.144546 0.010227
-80.897887 55.785935 -42.672571 -172.457590 -12.611407 -0.972626 -0.497734 14.702312 0.203346 -0.035843 1.329997 0.030232 -0.085462 2.208280 0.062450 -0.425052 13.176020 0.303603 -0.719395 12.514694 5.345743 -2.013889 -12.470462 5.896661 0.392130 -0.273201 0.804628 -1.462689 -5.558403 -5.892649 -72.460930 -47.259365 106.058412 -13.740680 18.983149 5.323387 -6.700178 -2.140076 2.108967 3.265017 -11.306647 6.044449 57.331249 -44.993038 -99.770387 12.972602 -8.695430 9.033152 -4.704158 -62.466478 8.501965 -32.685880 85.232400 -37.668835 -10.194969 -17.102330 13.171073 0.033147 -0.077457 0.006115 10.462078 -59.295468 -13.212225 90.229481 70.582619 91.655552 1.110004 -19.159726 -3.098007 0.023466 0.149056 0.011480
-80.899392 55.785613 -42.672729 -172.459904 -12.613069 -0.967945 -0.478040 14.725405 0.195154 -0.048655 1.314948 0.036756 -0.079731 2.218315 0.059399 -0.416510 13.184503 0.303573 -0.725513 12.504599 5.342275 -2.020704 -12.479390 5.896299 0.377488 -0.298460 0.808659 -1.468620 -5.552796 -5.898080 -72.428166 -47.254237 106.049015 -13.738483 18.969144 5.323193 -6.717262 -2.157338 2.128546 3.267448 -11.314278 6.038839 57.335293 -44.993262 -99.784293 12.970603 -8.697280 9.033928 -4.698848 -62.467270 8.494151 -32.693057 85.234972 -37.677144 -10.191197 -17.098855 13.174270 0.034118 -0.079103 0.004593 10.474118 -59.288442 -13.223014 90.216809 70.582929 91.645280 1.109547 -19.166640 -3.101813 0.020506 0.154960 0.012553
-80.901361 55.785487 -42.672551 -172.458814 -12.612127 -0.963009 -0.473399 14.730381 0.187999 -0.050475 1.315369 0.038655 -0.073269 2.226892 0.057637 -0.407534 13.190633 0.304120 -0.726441 12.511158 5.320252 -2.040040 -12.504550 5.926001 0.359965 -0.321017 0.811302 -1.470027 -5.546589 -5.902533 -72.428077 -47.250018 106.054064 -13.738976 18.970496 5.324878 -6.736931 -2.168157 2.153398 3.273989 -11.322893 6.023166 57.343674 -44.993943 -99.793461 12.974358 -8.696632 9.033356 -4.695709 -62.470165 8.485077 -32.754654 85.233956 -37.740074 -10.188075 -17.097289 13.179780 0.041131 -0.079951 0.001580 10.485454 -59.284039 -13.235989 90.201492 70.590723 91.632337 1.111733 -19.170377 -3.105422 0.022904 0.159432 0.016271
-80.903251 55.785791 -42.673186 -172.459853 -12.615504 -0.960662 -0.470516 14.735272 0.185000 -0.042618 1.321791 0.034131 -0.071545 2.229694 0.056953 -0.396498 13.198525 0.300965 -0.740994 12.496609 5.331422 -2.038796 -12.495199 5.906840 0.343084 -0.341559 0.814368 -1.463856 -5.544652 -5.900301 -72.431584 -47.246386 106.051645 -13.738805 18.971941 5.325593 -6.759456 -2.183118 2.179684 3.279985 -11.323564 6.013720 57.345799 -44.992138 -99.803162 12.971103 -8.700720 9.036822 -4.696165 -62.465640 8.483590 -32.734962 85.232558 -37.722297 -10.202399 -17.097257 13.186646 0.058105 -0.076195 -0.000039 10.494725 -59.277614 -13.243070 90.193362 70.592166 91.627237 1.108252 -19.172660 -3.104586 0.024649 0.161055 0.015879
-80.905541 55.786193 -42.672833 -172.456356 -12.612802 -0.957771 -0.461032 14.741795 0.180726 -0.041646 1.322852 0.033771 -0.060800 2.238882 0.050429 -0.393834 13.195314 0.304717 -0.749983 12.497333 5.326449 -2.043225 -12.483390 5.883719 0.316034 -0.365113 0.814087 -1.452170 -5.534459 -5.898870 -72.428975 -47.251658 106.045643 -13.719958 19.014503 5.333374 -6.784613 -2.197305 2.207234 3.284328 -11.324153 6.003258 57.344613 -44.988696 -99.806071 12.979555 -8.689684 9.016338 -4.693940 -62.467344 8.476988 -32.806504 85.227351 -37.793647 -10.213787 -17.096687 13.191906 0.048037 -0.073736 0.001851 10.501395 -59.278442 -13.253396 90.188711 70.596745 91.621461 1.109929 -19.172431 -3.100452 0.025021 0.161119 0.014968
-80.908342 55.786793 -42.672187 -172.454525 -12.608654 -0.952227 -0.446088 14.751534 0.166942 -0.046902 1.318160 0.039595 -0.059405 2.241656 0.047949 -0.382816 13.199608 0.302607 -0.754454 12.503753 5.312565 -2.055099 -12.488536 5.885827 0.296714 -0.385988 0.821739 -1.442923 -5.531302 -5.905947 -72.415830 -47.269619 106.030111 -13.724511 19.013326 5.340336 -6.806108 -2.211686 2.232610 3.286055 -11.325904 5.996716 57.342887 -44.986467 -99.805370 12.981518 -8.682969 9.008825 -4.684846 -62.471355 8.466070 -32.859072 85.220489 -37.846944 -10.229740 -17.093387 13.196926 0.029139 -0.073545 0.005673 10.513597 -59.280724 -13.267692 90.183653 70.593428 91.610534 1.107267 -19.170415 -3.091564 0.018519 0.159634 0.011752
-80.910446 55.787685 -42.671808 -172.453140 -12.605621 -0.951062 -0.440425 14.754861 0.162257 -0.046909 1.318401 0.037110 -0.057160 2.244025 0.049675 -0.373924 13.203642 0.296142 -0.763417 12.497329 5.318675 -2.056287 -12.483759 5.868999 0.279481 -0.411707 0.809768 -1.444674 -5.521006 -5.892555 -72.414077 -47.258900 106.030401 -13.705151 19.035656 5.348992 -6.821300 -2.222728 2.257911 3.286499 -11.326491 5.988904 57.342262 -44.987886 -99.808325 12.983319 -8.679998 9.007956 -4.686986 -62.471445 8.462873 -32.836638 85.217529 -37.824895 -10.231579 -17.094464 13.197760 0.025606 -0.071379 0.006144 10.520727 -59.284480 -13.274570 90.182356 70.595836 91.605861 1.108533 -19.163808 -3.081606 0.014294 0.154410 0.007380
-80.911550 55.788890 -42.672159 -172.451021 -12.606279 -0.955805 -0.437420 14.758958 0.165403 -0.033986 1.329522 0.030353 -0.066387 2.236357 0.054969 -0.365199 13.211000 0.293664 -0.769730 12.496465 5.310734 -2.063423 -12.491741 5.875133 0.265634 -0.434637 0.803441 -1.448532 -5.514493 -5.893907 -72.394913 -47.253867 106.021897 -13.691699 19.044666 5.362301 -6.834040 -2.236419 2.283040 3.290709 -11.325688 5.974839 57.338177 -44.993116 -99.815238 12.987631 -8.678820 9.009245 -4.692183 -62.465600 8.464811 -32.789515 85.212717 -37.777090 -10.217630 -17.097591 13.196080 0.029323 -0.068914 0.007306 10.511791 -59.284757 -13.267159 90.181636 70.597527 91.605949 1.109076 -19.161293 -3.079740 0.014949 0.152387 0.005807
-80.913042 55.790080 -42.672118 -172.449192 -12.604877 -0.956403 -0.435087 14.761146 0.164220 -0.030144 1.331470 0.027677 -0.071485 2.233103 0.058807 -0.351423 13.220987 0.287371 -0.775730 12.502800 5.281717 -2.076603 -12.505225 5.903771 0.251048 -0.451242 0.806273 -1.453824 -5.517328 -5.901609 -72.342223 -47.262934 105.992840 -13.692316 19.027365 5.374147 -6.850684 -2.250069 2.305613 3.304300 -11.328648 5.965842 57.323848 -44.991724 -99.815436 12.986352 -8.657336 8.985926 -4.687012 -62.465650 8.459744 -32.798257 85.210558 -37.784465 -10.210215 -17.096441 13.195533 0.035776 -0.069722 0.009158 10.503790 -59.283974 -13.261952 90.171572 70.598493 91.592251 1.109005 -19.161522 -3.078359 0.015335 0.154423 0.005845
-80.912916 55.791249 -42.672180 -172.449177 -12.602806 -0.964337 -0.424158 14.762342 0.171638 -0.032437 1.334452 0.023809 -0.067210 2.233027 0.062246 -0.332122 13.241510 0.275538 -0.798892 12.484720 5.283813 -2.082466 -12.508574 5.897149 0.224737 -0.482322 0.820313 -1.462914 -5.518433 -5.906540 -72.318506 -47.254950 105.988491 -13.685418 19.027410 5.379000 -6.878543 -2.272383 2.343475 3.309106 -11.336049 5.954312 57.316818 -44.991328 -99.814640 12.985815 -8.650945 8.983254 -4.695090 -62.465581 8.474237 -32.763486 85.206199 -37.751890 -10.201486 -17.089379 13.196906 0.030402 -0.074945 0.009219 10.489038 -59.289365 -13.244522 90.171903 70.606039 91.597851 1.107980 -19.154551 -3.085201 0.021724 0.150703 0.009926
